<?xml version="1.0" encoding="UTF-8"?>
<svg width="187px" height="46px" viewBox="0 0 187 46" version="1.1" xmlns="http://www.w3.org/2000/svg" xmlns:xlink="http://www.w3.org/1999/xlink">
    <!-- Generator: Sketch 53.2 (72643) - https://sketchapp.com -->
    <title>Group 46</title>
    <desc>Created with Sketch.</desc>
    <defs>
        <polygon id="path-1" points="0.396411985 0.352178788 22.7856398 0.352178788 22.7856398 44.6060606 0.396411985 44.6060606"></polygon>
        <polygon id="path-3" points="9.34337052e-05 0.352178788 23.391739 0.352178788 23.391739 44.6060606 9.34337052e-05 44.6060606"></polygon>
        <polygon id="path-5" points="0 45.9215909 186.88794 45.9215909 186.88794 0.696621212 0 0.696621212"></polygon>
    </defs>
    <g id="Page-1" stroke="none" stroke-width="1" fill="none" fill-rule="evenodd">
        <g id="Desktop-HD-Copy-3" transform="translate(-87.000000, -44.000000)">
            <g id="Group-46" transform="translate(87.000000, 44.000000)">
                <g id="Group-3" transform="translate(32.217228, 1.315530)">
                    <mask id="mask-2" fill="white">
                        <use xlink:href="#path-1"></use>
                    </mask>
                    <g id="Clip-2"></g>
                    <path d="M5.69964794,0.352178788 L13.204161,15.3223909 C13.8092846,16.3824818 13.8695169,17.7157848 13.3631461,18.8365121 L0.396411985,44.6062697 L21.9721498,19.9307545 C23.204809,18.3911485 23.0136067,16.0193606 21.5547266,14.7453 L5.69964794,0.352178788 Z" id="Fill-1" fill="#3194BD" mask="url(#mask-2)"></path>
                </g>
                <g id="Group-6" transform="translate(0.000000, 1.315530)">
                    <mask id="mask-4" fill="white">
                        <use xlink:href="#path-3"></use>
                    </mask>
                    <g id="Clip-5"></g>
                    <path d="M18.088503,0.352178788 L10.5839899,15.3223909 C9.97886629,16.3824818 9.91863408,17.7157848 10.4250049,18.8365121 L23.391739,44.6062697 L0.813064794,19.9307545 C-0.418894007,18.3911485 -0.22769176,16.0193606 1.23048801,14.7453 L18.088503,0.352178788 Z" id="Fill-4" fill="#161A26" mask="url(#mask-4)"></path>
                </g>
                <polygon id="Fill-7" fill="#161A26" points="37.1190097 17.3305 27.9966315 45.9215909 27.9966315 0.697318182"></polygon>
                <polygon id="Fill-9" fill="#3194BD" points="18.8747434 17.3305 27.9964213 45.9215909 27.9964213 0.697318182"></polygon>
                <polygon id="Fill-11" fill="#212634" points="72.2543487 7.73692121 72.2543487 10.9074364 77.3993 10.9074364 77.3993 13.6716182 72.2543487 13.6716182 72.2543487 17.034497 78.0450453 17.034497 78.0450453 19.9694364 68.5731801 19.9694364 68.5731801 4.82289091 78.0450453 4.82289091 78.0450453 7.73692121"></polygon>
                <polygon id="Fill-13" fill="#212634" points="87.6465498 19.969297 85.1917371 16.5632061 83.190767 19.969297 79.1433026 19.969297 83.1249318 13.7356 78.9927221 8.0155697 83.1249318 8.0155697 85.558033 11.3791455 87.5604037 8.0155697 91.6078682 8.0155697 87.5386921 14.0994182 91.7801603 19.969297"></polygon>
                <path d="M97.5604914,11.8608909 C97.0646262,12.3829212 96.817394,13.0931333 96.817394,13.9929212 C96.817394,14.8780727 97.0646262,15.585497 97.5604914,16.1138 C98.0556562,16.6414061 98.6901955,16.9062545 99.4648097,16.9062545 C100.254132,16.9062545 100.889372,16.6483758 101.370529,16.1347091 C101.851686,15.6210424 102.091915,14.9066485 102.091915,13.9929212 C102.091915,13.078497 101.851686,12.364103 101.370529,11.8497394 C100.889372,11.3360727 100.254132,11.0788909 99.4648097,11.0788909 C98.6901955,11.0788909 98.0556562,11.3395576 97.5604914,11.8608909 M103.308465,8.60464848 C104.090784,9.09740606 104.707813,9.80413333 105.159555,10.7255273 C105.611997,11.6469212 105.837518,12.7362848 105.837518,13.9929212 C105.837518,15.2349212 105.611997,16.320103 105.159555,17.2484667 C104.707813,18.1775273 104.090784,18.8877394 103.308465,19.380497 C102.525446,19.8732545 101.639473,20.1199818 100.649143,20.1199818 C99.7302517,20.1199818 98.94163,19.9129818 98.2818772,19.4982848 C97.6207236,19.0835879 97.1402667,18.5204364 96.8391056,17.8053455 L96.8391056,25.6685576 L93.1579371,25.6685576 L93.1579371,8.01501212 L96.8391056,8.01501212 L96.8391056,10.179103 C97.1402667,9.46470909 97.6207236,8.90155758 98.2818772,8.48616364 C98.94163,8.07216364 99.7302517,7.86586061 100.649143,7.86586061 C101.639473,7.86586061 102.525446,8.11189091 103.308465,8.60464848" id="Fill-15" fill="#212634"></path>
                <path d="M114.803852,11.3463182 C114.366118,10.9539242 113.824028,10.7573788 113.178283,10.7573788 C112.503822,10.7573788 111.944223,10.9574091 111.499485,11.3574697 C111.054047,11.7575303 110.803313,12.3429848 110.745882,13.1145303 L115.439092,13.1145303 C115.4531,12.3290455 115.241587,11.7394091 114.803852,11.3463182 M119.055826,14.6562273 L110.724871,14.6562273 C110.766894,15.5567121 110.996616,16.202803 111.413339,16.595197 C111.828661,16.9882879 112.360246,17.1841364 113.005991,17.1841364 C113.551583,17.1841364 114.003324,17.0496212 114.362616,16.777803 C114.721208,16.5059848 114.957935,16.1554091 115.072796,15.7274697 L118.96968,15.7274697 C118.811396,16.570803 118.466811,17.3235303 117.935927,17.9877424 C117.405043,18.6519545 116.730583,19.1732879 115.912545,19.5510455 C115.094508,19.930197 114.183321,20.1197727 113.178283,20.1197727 C112.001654,20.1197727 110.957396,19.8730455 110.046208,19.3802879 C109.134321,18.8875303 108.420639,18.1773182 107.903763,17.2489545 C107.387587,16.3205909 107.129148,15.2347121 107.129148,13.9927121 C107.129148,12.7360758 107.384085,11.6474091 107.893257,10.7253182 C108.402429,9.80392424 109.117512,9.09719697 110.035002,8.60443939 C110.953894,8.11168182 112.001654,7.86565152 113.178283,7.86565152 C114.36962,7.86565152 115.41668,8.10819697 116.321564,8.59398485 C117.225748,9.07907576 117.925422,9.76210606 118.420587,10.6395909 C118.915751,11.5177727 119.163684,12.5283788 119.163684,13.6714091 C119.163684,13.9711061 119.127264,14.3000758 119.055826,14.6562273" id="Fill-17" fill="#212634"></path>
                <path d="M126.536106,8.52916667 C127.260994,8.10122727 128.046814,7.88656061 128.893567,7.88656061 L128.893567,11.8070152 L127.838103,11.8070152 C126.862481,11.8070152 126.106076,12.0147121 125.567488,12.4287121 C125.029601,12.8427121 124.759957,13.5424697 124.759957,14.5279848 L124.759957,19.9692273 L121.078788,19.9692273 L121.078788,8.0155 L124.759957,8.0155 L124.759957,10.2646212 C125.219402,9.53628788 125.811219,8.95780303 126.536106,8.52916667" id="Fill-19" fill="#212634"></path>
                <path d="M137.245884,16.8206667 L137.245884,19.9695758 L135.587397,19.9695758 C134.181745,19.9695758 133.08706,19.6231818 132.304741,18.9303939 C131.523123,18.2376061 131.131614,17.0924848 131.131614,15.4922424 L131.131614,11.1006364 L129.517251,11.1006364 L129.517251,8.01515152 L131.131614,8.01515152 L131.131614,5.08021212 L134.812782,5.08021212 L134.812782,8.01515152 L137.224172,8.01515152 L137.224172,11.1006364 L134.812782,11.1006364 L134.812782,15.5570606 C134.812782,16.0275152 134.910134,16.3564848 135.103438,16.5418788 C135.297442,16.7272727 135.623816,16.8206667 136.083262,16.8206667 L137.245884,16.8206667 Z" id="Fill-21" fill="#212634"></path>
                <path d="M144.769447,8.52916667 C145.494334,8.10122727 146.280155,7.88656061 147.126907,7.88656061 L147.126907,11.8070152 L146.071443,11.8070152 C145.095821,11.8070152 144.339417,12.0147121 143.800829,12.4287121 C143.262941,12.8427121 142.993997,13.5424697 142.993997,14.5279848 L142.993997,19.9692273 L139.312128,19.9692273 L139.312128,8.0155 L142.993997,8.0155 L142.993997,10.2646212 C143.453443,9.53628788 144.044559,8.95780303 144.769447,8.52916667" id="Fill-23" fill="#212634"></path>
                <path d="M152.519091,11.7962121 C152.037934,12.304303 151.797705,13.0354242 151.797705,13.9923636 C151.797705,14.949303 152.037934,15.6776364 152.519091,16.1773636 C152.999548,16.6777879 153.592065,16.927303 154.295241,16.927303 C154.998417,16.927303 155.586731,16.6777879 156.060185,16.1773636 C156.533638,15.6776364 156.771065,14.949303 156.771065,13.9923636 C156.771065,13.0354242 156.533638,12.304303 156.060185,11.7962121 C155.586731,11.2895152 154.998417,11.0358182 154.295241,11.0358182 C153.592065,11.0358182 152.999548,11.2895152 152.519091,11.7962121 M157.492451,8.60478788 C158.431653,9.09754545 159.171248,9.80775758 159.709836,10.7361212 C160.247724,11.6651818 160.516668,12.7496667 160.516668,13.9923636 C160.516668,15.2350606 160.247724,16.3202424 159.709836,17.2486061 C159.171248,18.1769697 158.431653,18.8878788 157.492451,19.3806364 C156.551848,19.8733939 155.486578,20.1194242 154.295241,20.1194242 C153.103203,20.1194242 152.034432,19.8733939 151.087525,19.3806364 C150.140619,18.8878788 149.397522,18.1769697 148.859634,17.2486061 C148.321046,16.3202424 148.052102,15.2350606 148.052102,13.9923636 C148.052102,12.7496667 148.321046,11.6651818 148.859634,10.7361212 C149.397522,9.80775758 150.140619,9.09754545 151.087525,8.60478788 C152.034432,8.1120303 153.103203,7.86530303 154.295241,7.86530303 C155.486578,7.86530303 156.551848,8.1120303 157.492451,8.60478788" id="Fill-25" fill="#212634"></path>
                <path d="M173.335693,9.25812727 C174.146727,10.1725515 174.552243,11.4291879 174.552243,13.0287333 L174.552243,19.9691576 L170.871075,19.9691576 L170.871075,13.4566727 C170.871075,12.6572485 170.659562,12.0320667 170.235835,11.5825212 C169.812109,11.1322788 169.249708,10.9071576 168.546532,10.9071576 C167.799933,10.9071576 167.207416,11.1434303 166.769682,11.6145818 C166.331948,12.0864303 166.113431,12.7576121 166.113431,13.6288242 L166.113431,19.9691576 L162.432262,19.9691576 L162.432262,8.0154303 L166.113431,8.0154303 L166.113431,10.2011273 C166.458015,9.48603636 166.970689,8.92288485 167.652854,8.50818788 C168.334318,8.09349091 169.134146,7.88649091 170.053037,7.88649091 C171.429974,7.88649091 172.524659,8.34370303 173.335693,9.25812727" id="Fill-27" fill="#212634"></path>
                <path d="M185.004073,9.00087576 C185.91526,9.75778485 186.486065,10.7579364 186.715088,12.0006333 L183.271346,12.0006333 C183.171193,11.5141485 182.944271,11.1329061 182.592683,10.8534212 C182.241095,10.5760273 181.799859,10.4366333 181.268975,10.4366333 C180.852252,10.4366333 180.537084,10.5258455 180.322069,10.7042697 C180.106354,10.8826939 179.999196,11.1356939 179.999196,11.4646636 C179.999196,11.8361485 180.196702,12.1149364 180.591713,12.2996333 C180.985324,12.4857242 181.605855,12.6718152 182.453309,12.8565121 C183.370799,13.0718758 184.125103,13.2893303 184.714118,13.5109667 C185.301732,13.7319061 185.810904,14.0929364 186.242335,14.5919667 C186.673065,15.0923909 186.88738,15.7635727 186.88738,16.6055121 C186.88738,17.2920273 186.70108,17.8990879 186.328481,18.4266939 C185.955181,18.9556939 185.417294,19.3696939 184.714118,19.6700879 C184.010241,19.9690879 183.178196,20.1196333 182.215882,20.1196333 C180.594515,20.1196333 179.29602,19.7620879 178.320399,19.0483909 C177.344076,18.3346939 176.748058,17.3136333 176.533043,15.9852091 L180.085342,15.9852091 C180.142073,16.4995727 180.36129,16.8912697 180.742294,17.1630879 C181.121897,17.4349061 181.61356,17.5701182 182.215882,17.5701182 C182.632604,17.5701182 182.947773,17.4739364 183.164189,17.2808758 C183.379204,17.0885121 183.486361,16.8348152 183.486361,16.5204818 C183.486361,16.1064818 183.288855,15.8102697 182.894545,15.6311485 C182.499533,15.4527242 181.85729,15.2638455 180.967114,15.0638152 C180.077638,14.8784212 179.345747,14.6783909 178.77214,14.4637242 C178.197833,14.2490576 177.702668,13.9033606 177.285945,13.4252394 C176.870623,12.9464212 176.661912,12.2933606 176.661912,11.4646636 C176.661912,10.3934212 177.071631,9.52569394 177.889668,8.86148182 C178.707706,8.19796667 179.861923,7.86551212 181.355121,7.86551212 C182.876335,7.86551212 184.092185,8.24396667 185.004073,9.00087576" id="Fill-29" fill="#212634"></path>
                <mask id="mask-6" fill="white">
                    <use xlink:href="#path-5"></use>
                </mask>
                <g id="Clip-32"></g>
                <polygon id="Fill-31" fill="#212634" mask="url(#mask-6)" points="69.0387191 40.7131364 70.4583783 40.7131364 70.4583783 29.7658333 69.0387191 29.7658333"></polygon>
                <path d="M79.6660622,33.0034667 C80.2788899,33.6398 80.5863543,34.5584061 80.5863543,35.7599818 L80.5863543,40.7133455 L79.1666951,40.7133455 L79.1666951,35.8840424 C79.1666951,35.0351333 78.9474779,34.3827697 78.5104442,33.9269515 C78.0741109,33.4718303 77.481594,33.2446182 76.7321933,33.2446182 C75.951976,33.2446182 75.3279423,33.4955273 74.8593918,33.9973455 C74.3915416,34.4991636 74.1569161,35.2309818 74.1569161,36.1941939 L74.1569161,40.7133455 L72.7372569,40.7133455 L72.7372569,32.1880121 L74.1569161,32.1880121 L74.1569161,34.2071333 C74.375433,33.5129515 74.7634404,32.9797697 75.3195378,32.6075879 C75.8756352,32.2347091 76.5178787,32.0486182 77.2462682,32.0486182 C78.2450022,32.0486182 79.0518337,32.3671333 79.6660622,33.0034667" id="Fill-33" fill="#212634" mask="url(#mask-6)"></path>
                <path d="M87.7867648,32.8325697 C88.3736787,33.3350848 88.7308697,34.0097515 88.8562367,34.8586606 L87.4975101,34.8586606 C87.4351768,34.3519636 87.2250644,33.9344788 86.8664727,33.608297 C86.5071805,33.2828121 86.0267236,33.1197212 85.4230007,33.1197212 C84.9124277,33.1197212 84.5153154,33.2416909 84.2288622,33.4849333 C83.9438097,33.7274788 83.800233,34.0571455 83.800233,34.4711455 C83.800233,34.781297 83.8961843,35.0322061 84.0880869,35.2238727 C84.2813903,35.4148424 84.520218,35.5605091 84.8066712,35.6587818 C85.092424,35.7570545 85.4853341,35.8629939 85.9847011,35.977297 C86.6192404,36.1222667 87.1319146,36.2700242 87.5213228,36.4191758 C87.9121318,36.5697212 88.2441094,36.8101758 88.5200569,37.1419333 C88.7953041,37.4729939 88.9339783,37.9176606 88.9339783,38.4773273 C88.9339783,39.1708121 88.6713378,39.7346606 88.1460569,40.1688727 C87.6200757,40.6037818 86.9211019,40.8219333 86.0477348,40.8219333 C85.0272891,40.8219333 84.1952442,40.5786909 83.5501993,40.0915091 C82.9051543,39.6050242 82.5255513,38.9268727 82.4113903,38.0577515 L83.7848247,38.0577515 C83.8366524,38.5756 84.0628734,38.9951758 84.4634876,39.3157818 C84.8641019,39.6363879 85.3914839,39.7966909 86.0477348,39.7966909 C86.5358959,39.7966909 86.9183004,39.6719333 87.1942479,39.4238121 C87.4694951,39.1756909 87.6074689,38.8495091 87.6074689,38.4459636 C87.6074689,38.114903 87.5087161,37.8507515 87.3112105,37.6542061 C87.1130045,37.4576606 86.8692742,37.3071152 86.577218,37.2032667 C86.2865625,37.1001152 85.8859483,36.9913879 85.3760757,36.8777818 C84.7415363,36.7328121 84.2344652,36.5878424 83.8548622,36.4428727 C83.4752592,36.297903 83.1523865,36.067903 82.8869446,35.7514788 C82.622203,35.4357515 82.4891318,35.0092061 82.4891318,34.4711455 C82.4891318,33.7560545 82.7545738,33.1796606 83.2854577,32.7391758 C83.8156412,32.2993879 84.5384277,32.0791455 85.4538172,32.0791455 C86.4217348,32.0791455 87.1991506,32.3300545 87.7867648,32.8325697" id="Fill-34" fill="#212634" mask="url(#mask-6)"></path>
                <path d="M93.6615764,33.7174424 C93.2147375,33.9711394 92.8659509,34.3363515 92.6159172,34.8116848 C92.3665839,35.2884121 92.2419172,35.8369273 92.2419172,36.4586242 C92.2419172,37.0789273 92.3665839,37.6253515 92.6159172,38.096503 C92.8659509,38.5676545 93.2147375,38.9321697 93.6615764,39.1914424 C94.1091157,39.4507152 94.6084828,39.5796545 95.1603779,39.5796545 C96.0435502,39.5796545 96.7488273,39.3029576 97.2741082,38.7488667 C97.7993891,38.1954727 98.06273,37.4315939 98.06273,36.4586242 C98.06273,35.4849576 97.7993891,34.7217758 97.2741082,34.1676848 C96.7488273,33.6142909 96.0435502,33.336897 95.1603779,33.336897 C94.6084828,33.336897 94.1091157,33.4644424 93.6615764,33.7174424 M97.5941794,32.6071697 C98.1873966,32.9591394 98.6524453,33.4672303 98.9907262,34.1293515 C99.3290071,34.7914727 99.4977974,35.567897 99.4977974,36.4586242 C99.4977974,37.3486545 99.3290071,38.1222909 98.9907262,38.7802303 C98.6524453,39.4367758 98.1873966,39.9420788 97.5941794,40.2940485 C97.0016625,40.6453212 96.3244004,40.8216545 95.5651944,40.8216545 C94.7338498,40.8216545 94.0285727,40.6125636 93.451464,40.1929879 C92.8743554,39.7734121 92.4758423,39.2214121 92.2573255,38.5390788 L92.2573255,44.7497758 L90.8376663,44.7497758 L90.8376663,32.1882909 L92.2573255,32.1882909 L92.2573255,34.3621394 C92.4758423,33.6784121 92.8743554,33.1271091 93.451464,32.7082303 C94.0285727,32.2886545 94.7338498,32.0788667 95.5651944,32.0788667 C96.3244004,32.0788667 97.0016625,32.2552 97.5941794,32.6071697" id="Fill-35" fill="#212634" mask="url(#mask-6)"></path>
                <path d="M101.354,40.7131364 L102.773659,40.7131364 L102.773659,32.1885 L101.354,32.1885 L101.354,40.7131364 Z M101.369408,29.0591061 C101.546603,28.898803 101.781228,28.8179545 102.071884,28.8179545 C102.36394,28.8179545 102.597165,28.898803 102.773659,29.0591061 C102.950854,29.2201061 103.039101,29.429197 103.039101,29.6877727 C103.039101,29.9470455 102.950854,30.1561364 102.773659,30.3171364 C102.597165,30.4774394 102.36394,30.5575909 102.071884,30.5575909 C101.781228,30.5575909 101.546603,30.4774394 101.369408,30.3171364 C101.192914,30.1561364 101.105367,29.9470455 101.105367,29.6877727 C101.105367,29.429197 101.192914,29.2201061 101.369408,29.0591061 L101.369408,29.0591061 Z" id="Fill-36" fill="#212634" mask="url(#mask-6)"></path>
                <path d="M107.705697,32.5378909 C108.246386,32.2110121 108.891431,32.0486182 109.640131,32.0486182 L109.640131,33.5854364 L109.203097,33.5854364 C108.402569,33.5854364 107.747719,33.7903455 107.237146,34.1987697 C106.727974,34.6078909 106.472337,35.2832545 106.472337,36.2255576 L106.472337,40.7126485 L105.052678,40.7126485 L105.052678,32.1880121 L106.472337,32.1880121 L106.472337,33.9123152 C106.753187,33.3212848 107.165007,32.8640727 107.705697,32.5378909" id="Fill-37" fill="#212634" mask="url(#mask-6)"></path>
                <path d="M117.176511,34.4858515 C116.937684,34.0620939 116.609208,33.7456697 116.193886,33.5393667 C115.777863,33.3323667 115.325421,33.2278212 114.83656,33.2278212 C114.056343,33.2278212 113.400792,33.4689727 112.870609,33.9498818 C112.340425,34.4321848 112.053972,35.1389121 112.011949,36.0693667 L117.488878,36.0693667 C117.520395,35.4386091 117.416039,34.9103061 117.176511,34.4858515 M118.861612,36.7530939 L112.011949,36.7530939 C112.042766,37.7260636 112.320815,38.4557909 112.846796,38.9429727 C113.372077,39.4294576 114.01432,39.672003 114.773526,39.672003 C115.460594,39.672003 116.034901,39.4991545 116.497848,39.1520636 C116.960796,38.8049727 117.244448,38.3421848 117.348803,37.7623061 L118.861612,37.7623061 C118.757957,38.3526394 118.526833,38.8809424 118.168242,39.3465182 C117.808949,39.8120939 117.3432,40.1745182 116.771695,40.4330939 C116.198788,40.6916697 115.553743,40.822003 114.83656,40.822003 C114.01432,40.822003 113.285931,40.6456697 112.652092,40.2937 C112.017552,39.9417303 111.520287,39.4371242 111.161695,38.7798818 C110.802403,38.1226394 110.623107,37.3483061 110.623107,36.4582758 C110.623107,35.5682455 110.802403,34.7911242 111.161695,34.129003 C111.520287,33.4668818 112.017552,32.9594879 112.652092,32.6075182 C113.285931,32.2555485 114.01432,32.0792152 114.83656,32.0792152 C115.667904,32.0792152 116.393493,32.2555485 117.013324,32.6075182 C117.631054,32.9594879 118.105208,33.4299424 118.432983,34.0202758 C118.760758,34.6106091 118.924646,35.2622758 118.924646,35.9773667 C118.924646,36.2770636 118.903635,36.5356394 118.861612,36.7530939" id="Fill-38" fill="#212634" mask="url(#mask-6)"></path>
                <path d="M131.220561,39.3156424 C130.970528,39.7610061 130.590925,40.1227333 130.081752,40.4029152 C129.57188,40.681703 128.941543,40.8217939 128.193543,40.8217939 C127.465153,40.8217939 126.816606,40.6893697 126.250704,40.4259152 C125.6834,40.1617636 125.230258,39.7993394 124.892678,39.3386424 C124.554397,38.8779455 124.359693,38.3524303 124.307865,37.762097 L125.821374,37.762097 C125.852191,38.0736424 125.958648,38.3754303 126.141445,38.6709455 C126.323543,38.9657636 126.583382,39.209703 126.920962,39.4006727 C127.259243,39.5923394 127.667561,39.6878242 128.145917,39.6878242 C128.770651,39.6878242 129.249007,39.5226424 129.581685,39.1908848 C129.915063,38.8605212 130.081752,38.4353697 130.081752,37.9175212 C130.081752,37.4728545 129.96409,37.1104303 129.730164,36.8309455 C129.496239,36.5514606 129.206985,36.3319152 128.863801,36.1709152 C128.520618,36.0106121 128.052767,35.8370667 127.45955,35.6502788 C126.762678,35.4230667 126.203779,35.207703 125.782153,35.0062788 C125.361228,34.8041576 125.002636,34.5023697 124.705678,34.0981273 C124.408719,33.6945818 124.26094,33.1614 124.26094,32.4985818 C124.26094,31.9291576 124.398913,31.4273394 124.674161,30.9924303 C124.949408,30.5582182 125.34582,30.2208848 125.860595,29.9832182 C126.37537,29.7455515 126.981194,29.6256727 127.677367,29.6256727 C128.759445,29.6256727 129.618805,29.8877333 130.252644,30.4104606 C130.887183,30.9331879 131.256981,31.598097 131.360636,32.4058848 L129.831719,32.4058848 C129.747674,31.9702788 129.524254,31.5876424 129.16006,31.2565818 C128.795865,30.9248242 128.302101,30.7596424 127.677367,30.7596424 C127.105861,30.7596424 126.648516,30.9074 126.305333,31.2015212 C125.961449,31.4970364 125.790558,31.9138242 125.790558,32.4518848 C125.790558,32.8770364 125.901917,33.2206424 126.126037,33.4847939 C126.349457,33.7489455 126.627505,33.9559455 126.960183,34.105097 C127.293561,34.2556424 127.750906,34.4236121 128.333618,34.6104 C129.040296,34.8383091 129.6104,35.0557636 130.042531,35.2627636 C130.473962,35.4697636 130.840958,35.782703 131.14282,36.2015818 C131.443981,36.6211576 131.594561,37.1780364 131.594561,37.8715212 C131.594561,38.3886727 131.469194,38.8702788 131.220561,39.3156424" id="Fill-39" fill="#212634" mask="url(#mask-6)"></path>
                <path d="M141.112651,32.1880121 L141.112651,40.7126485 L139.692992,40.7126485 L139.692992,38.7095576 C139.474475,39.4037394 139.086468,39.9334364 138.53037,40.3014364 C137.974273,40.6694364 137.326427,40.8527394 136.588232,40.8527394 C135.599303,40.8527394 134.798075,40.5349212 134.185247,39.8978909 C133.570318,39.2608606 133.264254,38.3471333 133.264254,37.1567091 L133.264254,32.1880121 L134.684614,32.1880121 L134.684614,37.0173152 C134.684614,37.8662242 134.90243,38.5206788 135.339464,38.9813758 C135.777198,39.4420727 136.369715,39.6720727 137.119116,39.6720727 C137.899333,39.6720727 138.523367,39.4218606 138.990516,38.9193455 C139.459067,38.4175273 139.692992,37.6850121 139.692992,36.722497 L139.692992,32.1880121 L141.112651,32.1880121 Z" id="Fill-40" fill="#212634" mask="url(#mask-6)"></path>
                <path d="M149.897799,32.9489636 C150.615683,33.5288424 151.057619,34.3052667 151.223608,35.2782364 L149.725507,35.2782364 C149.621151,34.6676909 149.3382,34.1881758 148.875953,33.8417818 C148.413005,33.4953879 147.837297,33.3211455 147.151631,33.3211455 C146.652264,33.3211455 146.19632,33.4354485 145.7859,33.6633576 C145.374781,33.8912667 145.044904,34.2404485 144.79487,34.7116 C144.545537,35.1827515 144.42087,35.7647212 144.42087,36.4582061 C144.42087,37.1516909 144.545537,37.7343576 144.79487,38.2048121 C145.044904,38.6766606 145.374781,39.0258424 145.7859,39.2530545 C146.19632,39.4809636 146.652264,39.5945697 147.151631,39.5945697 C147.837297,39.5945697 148.413005,39.4189333 148.875953,39.0669636 C149.3382,38.7149939 149.621151,38.2340848 149.725507,37.6228424 L151.223608,37.6228424 C151.057619,38.6062667 150.615683,39.3847818 149.897799,39.9597818 C149.179215,40.5347818 148.275031,40.8219333 147.182447,40.8219333 C146.360908,40.8219333 145.632518,40.6456 144.997979,40.2936303 C144.36414,39.9416606 143.866174,39.4370545 143.507582,38.7798121 C143.14899,38.1225697 142.968994,37.3482364 142.968994,36.4582061 C142.968994,35.5681758 143.14899,34.7917515 143.507582,34.1289333 C143.866174,33.4668121 144.36414,32.9594182 144.997979,32.6074485 C145.632518,32.2554788 146.360908,32.0791455 147.182447,32.0791455 C148.275031,32.0791455 149.179215,32.3697818 149.897799,32.9489636" id="Fill-41" fill="#212634" mask="url(#mask-6)"></path>
                <path d="M159.587061,32.9489636 C160.304945,33.5288424 160.746881,34.3052667 160.91287,35.2782364 L159.414769,35.2782364 C159.310413,34.6676909 159.027461,34.1881758 158.565214,33.8417818 C158.102267,33.4953879 157.527259,33.3211455 156.840892,33.3211455 C156.341525,33.3211455 155.885581,33.4354485 155.475162,33.6633576 C155.064042,33.8912667 154.734166,34.2404485 154.484132,34.7116 C154.234799,35.1827515 154.110132,35.7647212 154.110132,36.4582061 C154.110132,37.1516909 154.234799,37.7343576 154.484132,38.2048121 C154.734166,38.6766606 155.064042,39.0258424 155.475162,39.2530545 C155.885581,39.4809636 156.341525,39.5945697 156.840892,39.5945697 C157.527259,39.5945697 158.102267,39.4189333 158.565214,39.0669636 C159.027461,38.7149939 159.310413,38.2340848 159.414769,37.6228424 L160.91287,37.6228424 C160.746881,38.6062667 160.304945,39.3847818 159.587061,39.9597818 C158.868476,40.5347818 157.964293,40.8219333 156.871709,40.8219333 C156.050169,40.8219333 155.32178,40.6456 154.68724,40.2936303 C154.053401,39.9416606 153.555435,39.4370545 153.196843,38.7798121 C152.838252,38.1225697 152.658255,37.3482364 152.658255,36.4582061 C152.658255,35.5681758 152.838252,34.7917515 153.196843,34.1289333 C153.555435,33.4668121 154.053401,32.9594182 154.68724,32.6074485 C155.32178,32.2554788 156.050169,32.0791455 156.871709,32.0791455 C157.964293,32.0791455 158.868476,32.3697818 159.587061,32.9489636" id="Fill-42" fill="#212634" mask="url(#mask-6)"></path>
                <path d="M168.901622,34.4858515 C168.662094,34.0620939 168.334318,33.7456697 167.918296,33.5393667 C167.502273,33.3323667 167.050532,33.2278212 166.56097,33.2278212 C165.780753,33.2278212 165.125903,33.4689727 164.595019,33.9498818 C164.064835,34.4321848 163.779082,35.1389121 163.73706,36.0693667 L169.213989,36.0693667 C169.244805,35.4386091 169.140449,34.9103061 168.901622,34.4858515 M170.586723,36.7530939 L163.73706,36.7530939 C163.767876,37.7260636 164.045925,38.4557909 164.571206,38.9429727 C165.097187,39.4294576 165.739431,39.672003 166.498637,39.672003 C167.185704,39.672003 167.760011,39.4991545 168.222959,39.1520636 C168.685906,38.8049727 168.969558,38.3421848 169.073914,37.7623061 L170.586723,37.7623061 C170.482367,38.3526394 170.251243,38.8809424 169.892652,39.3465182 C169.53406,39.8120939 169.068311,40.1745182 168.496105,40.4330939 C167.923899,40.6916697 167.278854,40.822003 166.56097,40.822003 C165.739431,40.822003 165.011041,40.6456697 164.376502,40.2937 C163.742663,39.9417303 163.244697,39.4371242 162.886105,38.7798818 C162.527513,38.1226394 162.348217,37.3483061 162.348217,36.4582758 C162.348217,35.5682455 162.527513,34.7911242 162.886105,34.129003 C163.244697,33.4668818 163.742663,32.9594879 164.376502,32.6075182 C165.011041,32.2555485 165.739431,32.0792152 166.56097,32.0792152 C167.393015,32.0792152 168.118603,32.2555485 168.738434,32.6075182 C169.356165,32.9594879 169.830318,33.4299424 170.158094,34.0202758 C170.485169,34.6106091 170.649056,35.2622758 170.649056,35.9773667 C170.649056,36.2770636 170.628745,36.5356394 170.586723,36.7530939" id="Fill-43" fill="#212634" mask="url(#mask-6)"></path>
                <path d="M177.522532,32.8325697 C178.109446,33.3350848 178.466637,34.0097515 178.591303,34.8586606 L177.233277,34.8586606 C177.170944,34.3519636 176.960831,33.9344788 176.60224,33.608297 C176.242948,33.2828121 175.76179,33.1197212 175.158768,33.1197212 C174.648195,33.1197212 174.251082,33.2416909 173.964629,33.4849333 C173.678876,33.7274788 173.536,34.0571455 173.536,34.4711455 C173.536,34.781297 173.631951,35.0322061 173.823854,35.2238727 C174.017157,35.4148424 174.255985,35.5605091 174.542438,35.6587818 C174.828191,35.7570545 175.221101,35.8629939 175.720468,35.977297 C176.355007,36.1222667 176.867682,36.2700242 177.25709,36.4191758 C177.647899,36.5697212 177.979876,36.8101758 178.255824,37.1419333 C178.531071,37.4729939 178.669745,37.9176606 178.669745,38.4773273 C178.669745,39.1708121 178.407105,39.7346606 177.881124,40.1688727 C177.355843,40.6037818 176.656169,40.8219333 175.782801,40.8219333 C174.763056,40.8219333 173.931011,40.5786909 173.285966,40.0915091 C172.640921,39.6050242 172.261318,38.9268727 172.147157,38.0577515 L173.520592,38.0577515 C173.572419,38.5756 173.79864,38.9951758 174.199255,39.3157818 C174.599869,39.6363879 175.127251,39.7966909 175.782801,39.7966909 C176.270963,39.7966909 176.653367,39.6719333 176.930015,39.4238121 C177.205262,39.1756909 177.343236,38.8495091 177.343236,38.4459636 C177.343236,38.114903 177.244483,37.8507515 177.046978,37.6542061 C176.848772,37.4576606 176.604341,37.3071152 176.312985,37.2032667 C176.02233,37.1001152 175.621715,36.9913879 175.111843,36.8777818 C174.477303,36.7328121 173.970232,36.5878424 173.590629,36.4428727 C173.210326,36.297903 172.888154,36.067903 172.622712,35.7514788 C172.35797,35.4357515 172.224899,35.0092061 172.224899,34.4711455 C172.224899,33.7560545 172.490341,33.1796606 173.021225,32.7391758 C173.551408,32.2993879 174.274195,32.0791455 175.189584,32.0791455 C176.156801,32.0791455 176.934918,32.3300545 177.522532,32.8325697" id="Fill-44" fill="#212634" mask="url(#mask-6)"></path>
                <path d="M185.590216,32.8325697 C186.17713,33.3350848 186.534321,34.0097515 186.658988,34.8586606 L185.300961,34.8586606 C185.238628,34.3519636 185.028516,33.9344788 184.669924,33.608297 C184.310632,33.2828121 183.829475,33.1197212 183.226452,33.1197212 C182.715879,33.1197212 182.318767,33.2416909 182.031613,33.4849333 C181.746561,33.7274788 181.603684,34.0571455 181.603684,34.4711455 C181.603684,34.781297 181.699636,35.0322061 181.891538,35.2238727 C182.084842,35.4148424 182.323669,35.5605091 182.610122,35.6587818 C182.895175,35.7570545 183.288785,35.8629939 183.788152,35.977297 C184.422692,36.1222667 184.934666,36.2700242 185.324774,36.4191758 C185.714883,36.5697212 186.047561,36.8101758 186.322808,37.1419333 C186.598755,37.4729939 186.73743,37.9176606 186.73743,38.4773273 C186.73743,39.1708121 186.474789,39.7346606 185.948808,40.1688727 C185.423527,40.6037818 184.723853,40.8219333 183.850486,40.8219333 C182.83074,40.8219333 181.998696,40.5786909 181.353651,40.0915091 C180.708606,39.6050242 180.328302,38.9268727 180.214842,38.0577515 L181.588276,38.0577515 C181.639403,38.5756 181.866325,38.9951758 182.266939,39.3157818 C182.667553,39.6363879 183.194935,39.7966909 183.850486,39.7966909 C184.338647,39.7966909 184.721051,39.6719333 184.997699,39.4238121 C185.272946,39.1756909 185.41092,38.8495091 185.41092,38.4459636 C185.41092,38.114903 185.312167,37.8507515 185.114662,37.6542061 C184.916456,37.4576606 184.672025,37.3071152 184.380669,37.2032667 C184.089313,37.1001152 183.6894,36.9913879 183.179527,36.8777818 C182.544988,36.7328121 182.037216,36.5878424 181.657613,36.4428727 C181.27801,36.297903 180.955838,36.067903 180.690396,35.7514788 C180.425654,35.4357515 180.292583,35.0092061 180.292583,34.4711455 C180.292583,33.7560545 180.558025,33.1796606 181.088909,32.7391758 C181.619093,32.2993879 182.341879,32.0791455 183.256568,32.0791455 C184.224486,32.0791455 185.001901,32.3300545 185.590216,32.8325697" id="Fill-45" fill="#212634" mask="url(#mask-6)"></path>
            </g>
        </g>
    </g>
</svg>